<?xml version="1.0" standalone="yes"?>
<svg xmlns="http://www.w3.org/2000/svg" width="64" height="64">
<path style="fill:#fafafa; stroke:none;" d="M0 0L1 1L0 0z"/>
<path style="fill:#717379; stroke:none;" d="M1 0L0 2L1 0z"/>
<path style="fill:#1e0e03; stroke:none;" d="M2.3179 1.02778C-3.26598 4.75388 0 25.7988 0 32C0 39.2575 -3.05712 55.5605 1.02778 61.6821C3.53359 65.4373 11.1462 64 15 64L48 64C51.8429 64 58.332 65.2077 61.6821 62.9722C67.266 59.2461 64 38.2012 64 32C64 24.7425 67.0571 8.43948 62.9722 2.3179C60.4664 -1.43728 52.8538 0 49 0L16 0C12.1571 0 5.66798 -1.20772 2.3179 1.02778z"/>
<path style="fill:#717379; stroke:none;" d="M62 0L64 2L62 0z"/>
<path style="fill:#fafafa; stroke:none;" d="M63 0L64 1L63 0M2.60339 2.02778C-1.94181 5.62764 1 24.479 1 30C1 36.9737 -2.34697 55.873 2.02778 61.3966C4.36755 64.3508 11.6845 63 15 63L49 63C52.3281 63 58.6153 64.1751 61.3966 61.9722C65.9418 58.3724 63 39.521 63 34C63 27.0263 66.347 8.12696 61.9722 2.6034C59.6324 -0.350807 52.3155 1 49 1L15 1C11.6719 1 5.38471 -0.175064 2.60339 2.02778z"/>
<path style="fill:#717379; stroke:none;" d="M41 3L41 4L59 6C59.7992 1.15203 44.52 3 41 3M37.6667 4.33333L38.3333 4.66667L37.6667 4.33333z"/>
<path style="fill:#1e0e03; stroke:none;" d="M18 23L23 23C26.1688 15.5157 32.7215 9.4633 40 6L39 8L47 5C35.1218 0.026886 22.149 13.1364 18 23z"/>
<path style="fill:#ca2801; stroke:none;" d="M47 4L43 5L43 6L48 5L47 4z"/>
<path style="fill:#1e0e03; stroke:none;" d="M48.6667 4.33333L49.3333 4.66667L48.6667 4.33333z"/>
<path style="fill:#f9e002; stroke:none;" d="M42 6L37 12L40 8C34.1564 11.3782 29.9024 15.9003 27 22L30 21L29 24C23.0975 22.256 4.63609 25.6076 16 33L15 25L16 25C16.2031 31.2372 19.0318 34.1169 25 31L23 37L22 37L22 34C15.4791 38.3088 13.6015 52.6362 13 60L28 60L33 35L35 35L36 38L33 38L35 51L38 51L37 40L38 40L39 52L49.2585 50.9722L52.75 38L59 4L42 6z"/>
<path style="fill:#717379; stroke:none;" d="M34.6667 5.33333L35.3333 5.66667L34.6667 5.33333z"/>
<path style="fill:#ca2801; stroke:none;" d="M40.6667 5.33333L41.3333 5.66667L40.6667 5.33333z"/>
<path style="fill:#717379; stroke:none;" d="M47 5L48 6L47 5M32 6L33 7L32 6z"/>
<path style="fill:#ca2801; stroke:none;" d="M23 23L30 22L30 21L26 21L30 18L38 10L40 6C32.3934 8.42891 25.0383 15.1617 23 23z"/>
<path style="fill:#717379; stroke:none;" d="M44.6667 6.33333L45.3333 6.66667L44.6667 6.33333M40 7L38 12L40 7z"/>
<path style="fill:#ca2801; stroke:none;" d="M42 7L43 8L42 7z"/>
<path style="fill:#717379; stroke:none;" d="M43 7L44 8L43 7M58 7L58 12L59 12L58 7M29 8L30 9L29 8z"/>
<path style="fill:#1e0e03; stroke:none;" d="M37 8L38 9L37 8z"/>
<path style="fill:#ca2801; stroke:none;" d="M40 8L41 9L40 8z"/>
<path style="fill:#717379; stroke:none;" d="M28 9L29 10L28 9z"/>
<path style="fill:#1e0e03; stroke:none;" d="M36 9L37 10L36 9z"/>
<path style="fill:#ca2801; stroke:none;" d="M39 9L40 10L39 9z"/>
<path style="fill:#1e0e03; stroke:none;" d="M35 10L36 11L35 10z"/>
<path style="fill:#ca2801; stroke:none;" d="M38 10L39 11L38 10z"/>
<path style="fill:#1e0e03; stroke:none;" d="M34 11L35 12L34 11z"/>
<path style="fill:#ca2801; stroke:none;" d="M37 11L38 12L37 11z"/>
<path style="fill:#1e0e03; stroke:none;" d="M33 12L34 13L33 12z"/>
<path style="fill:#ca2801; stroke:none;" d="M36 12L33 16L36 12z"/>
<path style="fill:#717379; stroke:none;" d="M49.6667 12.3333L50.3333 12.6667L49.6667 12.3333M57 12L57 17L58 17L57 12z"/>
<path style="fill:#1e0e03; stroke:none;" d="M32 13L33 14L32 13M31 14L32 15L31 14z"/>
<path style="fill:#717379; stroke:none;" d="M35 14L36 15L35 14M22 15L23 16L22 15z"/>
<path style="fill:#1e0e03; stroke:none;" d="M30 15L31 16L30 15z"/>
<path style="fill:#717379; stroke:none;" d="M34 15L35 16L34 15M21 16L22 17L21 16z"/>
<path style="fill:#1e0e03; stroke:none;" d="M29 16L30 17L29 16z"/>
<path style="fill:#717379; stroke:none;" d="M33 16L34 17L33 16z"/>
<path style="fill:#1e0e03; stroke:none;" d="M44 16L45 17L44 16z"/>
<path style="fill:#ca2801; stroke:none;" d="M32 17L31 19L32 17M43.6667 17.3333L44.3333 17.6667L43.6667 17.3333z"/>
<path style="fill:#717379; stroke:none;" d="M56 17L56 22L57 22L56 17M20 18L21 19L20 18z"/>
<path style="fill:#1e0e03; stroke:none;" d="M28 18L29 19L28 18z"/>
<path style="fill:#717379; stroke:none;" d="M32 18L33 19L32 18M42 18L40 21L42 18z"/>
<path style="fill:#f9e002; stroke:none;" d="M43 18L41 29L43 18z"/>
<path style="fill:#717379; stroke:none;" d="M44 18L44 21L45 21L44 18M19 19L20 20L19 19z"/>
<path style="fill:#1e0e03; stroke:none;" d="M27 19L26 21L27 19z"/>
<path style="fill:#717379; stroke:none;" d="M31 19L32 20L31 19M27 20L28 21L27 20z"/>
<path style="fill:#ca2801; stroke:none;" d="M30 20L31 21L30 20M41 20L42 21L41 20z"/>
<path style="fill:#1e0e03; stroke:none;" d="M40 21L39 26L40 26L40 21z"/>
<path style="fill:#ca2801; stroke:none;" d="M43 21L43 24L44 24L43 21z"/>
<path style="fill:#717379; stroke:none;" d="M49 21L50 22L49 21M8 22L8 23L19 24L8 22z"/>
<path style="fill:#1e0e03; stroke:none;" d="M24.6667 22.3333L25.3333 22.6667L24.6667 22.3333z"/>
<path style="fill:#717379; stroke:none;" d="M29 22L30 23L29 22z"/>
<path style="fill:#ca2801; stroke:none;" d="M40.3333 22.6667L40.6667 23.3333L40.3333 22.6667z"/>
<path style="fill:#717379; stroke:none;" d="M6 23L7 24L6 23z"/>
<path style="fill:#1e0e03; stroke:none;" d="M11 33L11 32C6.82773 27.7298 10.3511 25.2515 15 24C5.42597 20.2038 -0.277116 32.1397 11 33z"/>
<path style="fill:#ca2801; stroke:none;" d="M12 23L13 24L12 23M15 23L15 24L18 24L15 23z"/>
<path style="fill:#717379; stroke:none;" d="M28 23L29 24L28 23M55 23L55 27L56 27L55 23z"/>
<path style="fill:#ca2801; stroke:none;" d="M13 33L13 25C6.45211 24.8945 8.10037 31.1983 13 33M13 24L14 25L13 24z"/>
<path style="fill:#717379; stroke:none;" d="M16 24L17 25L16 24z"/>
<path style="fill:#ca2801; stroke:none;" d="M38 24L42 30L43 26L42 26L41 29L38 24z"/>
<path style="fill:#717379; stroke:none;" d="M43 24L43 27L44 27L43 24z"/>
<path style="fill:#ca2801; stroke:none;" d="M15 25L16 26L15 25z"/>
<path style="fill:#717379; stroke:none;" d="M37 25L38 26L37 25M3 26L3 30L4 30L3 26z"/>
<path style="fill:#1e0e03; stroke:none;" d="M11.3333 26.6667L11.6667 27.3333L11.3333 26.6667z"/>
<path style="fill:#717379; stroke:none;" d="M15 26L18 33L15 26z"/>
<path style="fill:#1e0e03; stroke:none;" d="M37 26L38 27L37 26z"/>
<path style="fill:#ca2801; stroke:none;" d="M14.3333 27.6667L14.6667 28.3333L14.3333 27.6667z"/>
<path style="fill:#1e0e03; stroke:none;" d="M38 27L39 28L38 27z"/>
<path style="fill:#717379; stroke:none;" d="M39 28L40 29L39 28M54 28L54 33L55 33L54 28z"/>
<path style="fill:#1e0e03; stroke:none;" d="M11 29L13 32L11 29z"/>
<path style="fill:#717379; stroke:none;" d="M40 29L41 30L40 29M42 29L41 31L43 31L42 29M12 30L13 31L12 30M4 31L5 32L4 31z"/>
<path style="fill:#ca2801; stroke:none;" d="M15 31L16 32L15 31z"/>
<path style="fill:#1e0e03; stroke:none;" d="M24 31L23 33L24 31z"/>
<path style="fill:#717379; stroke:none;" d="M5 32L6 33L5 32z"/>
<path style="fill:#1e0e03; stroke:none;" d="M13 32C8.13992 40.5483 5.08147 51.158 5 61L13 61L13 60L9 60C9.6634 51.8778 11.8342 39.6766 18 34L13 32z"/>
<path style="fill:#ca2801; stroke:none;" d="M14 32L15 33L14 32z"/>
<path style="fill:#717379; stroke:none;" d="M24 32L25 33L24 32z"/>
<path style="fill:#1e0e03; stroke:none;" d="M47 32L48 33L47 32z"/>
<path style="fill:#717379; stroke:none;" d="M7 33L7 34L12 35L7 33z"/>
<path style="fill:#ca2801; stroke:none;" d="M18 33C11.764 39.2099 9.37419 51.4173 9 60L13 60L14 56C13.4613 52.768 12.1017 51.2754 15 52C14.4613 48.768 13.1017 47.2754 16 48L17 44L18 41L17 38L20 36L18 33z"/>
<path style="fill:#1e0e03; stroke:none;" d="M19.3333 33.6667L19.6667 34.3333L19.3333 33.6667z"/>
<path style="fill:#717379; stroke:none;" d="M20 33L21 34L20 33z"/>
<path style="fill:#ca2801; stroke:none;" d="M21 33L22 36L23 36L24 33L21 33z"/>
<path style="fill:#717379; stroke:none;" d="M53 33L53 38L54 38L53 33M23 34L24 35L23 34M33 35L33 36L36 37L33 35z"/>
<path style="fill:#1e0e03; stroke:none;" d="M44 35L45 36L44 35z"/>
<path style="fill:#717379; stroke:none;" d="M45 35L46 36L45 35M47.6667 35.3333L48.3333 35.6667L47.6667 35.3333M10 36L11 37L10 36z"/>
<path style="fill:#1e0e03; stroke:none;" d="M18 36L19 37L18 36z"/>
<path style="fill:#717379; stroke:none;" d="M22 36L23 37L22 36z"/>
<path style="fill:#ca2801; stroke:none;" d="M33 36L33 38L35 36L33 36z"/>
<path style="fill:#717379; stroke:none;" d="M42 36L44 41L45 41L47 38L47 37L42 36z"/>
<path style="fill:#ca2801; stroke:none;" d="M21 37L22 38L21 37z"/>
<path style="fill:#717379; stroke:none;" d="M32 37L33 38L32 37z"/>
<path style="fill:#ca2801; stroke:none;" d="M35 37L36 38L35 37z"/>
<path style="fill:#1e0e03; stroke:none;" d="M42 37L43 38L42 37M44 37L45 38L44 37M17.3333 38.6667L17.6667 39.3333L17.3333 38.6667z"/>
<path style="fill:#717379; stroke:none;" d="M21.3333 38.6667L21.6667 39.3333L21.3333 38.6667z"/>
<path style="fill:#1e0e03; stroke:none;" d="M32 38L34 41L32 38z"/>
<path style="fill:#717379; stroke:none;" d="M36 38L37 39L36 38z"/>
<path style="fill:#f9e002; stroke:none;" d="M45 38L45 41L47 41L47 38L45 38z"/>
<path style="fill:#1e0e03; stroke:none;" d="M47.3333 38.6667L47.6667 39.3333L47.3333 38.6667z"/>
<path style="fill:#717379; stroke:none;" d="M9 39L10 40L9 39z"/>
<path style="fill:#ca2801; stroke:none;" d="M20.3333 39.6667L20.6667 40.3333L20.3333 39.6667M33 39L34 40L33 39M36 39L37 40L36 39z"/>
<path style="fill:#717379; stroke:none;" d="M42.3333 39.6667L42.6667 40.3333L42.3333 39.6667M52 39L52 44L53 44L52 39z"/>
<path style="fill:#ca2801; stroke:none;" d="M32 40L31 52L34 52C34.0359 47.6619 35.8122 42.8306 32 40z"/>
<path style="fill:#717379; stroke:none;" d="M37 40L38 41L37 40M47 40L46 42L48 42L47 40z"/>
<path style="fill:#1e0e03; stroke:none;" d="M16.3333 41.6667L16.6667 42.3333L16.3333 41.6667z"/>
<path style="fill:#717379; stroke:none;" d="M20.3333 41.6667L20.6667 42.3333L20.3333 41.6667M31 41L32 42L31 41z"/>
<path style="fill:#ca2801; stroke:none;" d="M37 41L37 44L38 44L37 41z"/>
<path style="fill:#1e0e03; stroke:none;" d="M45 41L46 42L45 41z"/>
<path style="fill:#717379; stroke:none;" d="M8 42L9 43L8 42z"/>
<path style="fill:#ca2801; stroke:none;" d="M19.3333 42.6667L19.6667 43.3333L19.3333 42.6667z"/>
<path style="fill:#717379; stroke:none;" d="M38 43L38 52L29 52L29 53L50 53L50 52L39 52L38 43z"/>
<path style="fill:#1e0e03; stroke:none;" d="M15.3333 44.6667L15.6667 45.3333L15.3333 44.6667z"/>
<path style="fill:#717379; stroke:none;" d="M19.3333 44.6667L19.6667 45.3333L19.3333 44.6667M30.3333 44.6667L30.6667 45.3333L30.3333 44.6667z"/>
<path style="fill:#1e0e03; stroke:none;" d="M34 44L34 52L35 52L34 44z"/>
<path style="fill:#717379; stroke:none;" d="M51 44L51 49L52 49L51 44M7 45L8 46L7 45z"/>
<path style="fill:#ca2801; stroke:none;" d="M18 45L18 48L19 48L18 45z"/>
<path style="fill:#1e0e03; stroke:none;" d="M30 46L29 52L30 46M14 47L14 50L15 50L14 47z"/>
<path style="fill:#717379; stroke:none;" d="M6.33333 48.6667L6.66667 49.3333L6.33333 48.6667M18.3333 48.6667L18.6667 49.3333L18.3333 48.6667M29.3333 48.6667L29.6667 49.3333L29.3333 48.6667z"/>
<path style="fill:#ca2801; stroke:none;" d="M17 49L17 52L18 52L17 49z"/>
<path style="fill:#717379; stroke:none;" d="M50.3333 50.6667L50.6667 51.3333L50.3333 50.6667z"/>
<path style="fill:#1e0e03; stroke:none;" d="M13 51L13 54L14 54L13 51z"/>
<path style="fill:#ca2801; stroke:none;" d="M35 51L35 52L38 52L35 51z"/>
<path style="fill:#717379; stroke:none;" d="M5.33333 52.6667L5.66667 53.3333L5.33333 52.6667M17.3333 52.6667L17.6667 53.3333L17.3333 52.6667z"/>
<path style="fill:#ca2801; stroke:none;" d="M16 53L16 56L17 56L16 53z"/>
<path style="fill:#717379; stroke:none;" d="M28 53L28 59L29 59L28 53z"/>
<path style="fill:#1e0e03; stroke:none;" d="M12 56L12 59L13 59L12 56z"/>
<path style="fill:#717379; stroke:none;" d="M16 56L16 59L17 59L16 56M4 57L4 61L5 61L4 57z"/>
<path style="fill:#ca2801; stroke:none;" d="M15 59L13 60L13 61L15 59z"/>
<path style="fill:#1e0e03; stroke:none;" d="M15 60L16 61L15 60z"/>
<path style="fill:#717379; stroke:none;" d="M16 60L16 61L28 61L16 60M0 62L2 64L0 62M63 62L62 64L63 62z"/>
<path style="fill:#fafafa; stroke:none;" d="M0 63L1 64L0 63M63 63L64 64L63 63z"/>
</svg>
